<svg width="66" height="66" viewBox="0 0 66 66" fill="none" xmlns="http://www.w3.org/2000/svg">
<path d="M46.0602 46.0666V46.0652H46.0672V36.1386C46.0672 31.2828 45.0219 27.5414 39.3442 27.5414C36.615 27.5414 34.7838 29.0392 34.0359 30.4588H33.957V27.9946H28.5739V46.0652H34.179V37.1177C34.179 34.762 34.6259 32.4839 37.5433 32.4839C40.4185 32.4839 40.4607 35.1722 40.4607 37.2692V46.0666H46.0602Z" fill="#FF3136"/>
<path d="M25.0592 27.996H19.4471V46.0666H25.0592V27.996Z" fill="#FF3136"/>
<path d="M22.2501 19C20.4562 19 19 20.4562 19 22.2501C19 24.044 20.4562 25.5306 22.2501 25.5306C24.044 25.5306 25.5003 24.044 25.5003 22.2501C25.4996 20.4562 24.0433 19 22.2501 19Z" fill="#FF3136"/>
<rect x="1" y="1" width="64" height="64" rx="2" stroke="#FF3136" stroke-width="2"/>
</svg>
