<svg width="69" height="14" viewBox="0 0 69 14" fill="none" xmlns="http://www.w3.org/2000/svg">
<path d="M28.5587 3.09385C27.5403 2.89968 26.5054 2.79246 25.4704 2.77217C24.8964 2.76058 24.3223 2.84462 23.7731 3.0185C23.0804 3.23295 22.4843 3.70533 22.1007 4.34868C21.706 5.08767 21.5128 5.93098 21.5487 6.77719C21.5404 7.35099 21.6094 7.9248 21.7585 8.47831C21.9296 9.16224 22.3298 9.75922 22.8817 10.1649C23.4999 10.5591 24.2175 10.7532 24.9405 10.7214C25.487 10.7243 26.0307 10.6257 26.544 10.4316C26.533 10.6344 26.4971 10.8373 26.4419 11.0314C26.337 11.3241 26.1273 11.5647 25.8596 11.7009C25.5008 11.8719 25.1089 11.953 24.717 11.9356C23.9084 11.9472 23.1025 11.8255 22.3298 11.5734C22.2856 11.556 22.2359 11.5647 22.2 11.5936C22.1614 11.6226 22.1393 11.669 22.1393 11.7183V13.2745C22.1393 13.3411 22.178 13.3991 22.2387 13.4223C23.0363 13.686 23.867 13.8135 24.7032 13.799C25.2828 13.8077 25.8596 13.7353 26.4198 13.5817C27.0987 13.4078 27.6976 12.9934 28.1171 12.4051C28.5118 11.7183 28.7022 10.9271 28.6691 10.1273V3.24744C28.6691 3.17789 28.6249 3.11414 28.5587 3.09385ZM23.7649 5.82375C23.8504 5.4731 24.0519 5.16301 24.3334 4.95436C24.6563 4.7457 25.0344 4.64717 25.4125 4.66456C25.7961 4.65297 26.1797 4.69933 26.5523 4.80076V8.43484C26.1162 8.65799 25.636 8.7768 25.1503 8.7797C24.924 8.7855 24.6977 8.74203 24.4879 8.65509C24.212 8.53337 23.9912 8.30443 23.8697 8.01753C23.7097 7.62051 23.6351 7.1916 23.6517 6.7598C23.6489 6.44392 23.6876 6.13094 23.7649 5.82375Z" fill="#C169FF"/>
<path d="M31.5336 5.41812C31.6219 5.1602 31.7903 4.94285 32.0138 4.79795C32.265 4.65015 32.552 4.5777 32.8418 4.58929C33.0543 4.5864 33.264 4.61538 33.4655 4.68203C33.7001 4.75448 33.9043 4.91677 34.0313 5.13701C34.1582 5.38044 34.2245 5.65285 34.2217 5.93106H31.415C31.4343 5.75718 31.4757 5.5862 31.5336 5.41812ZM34.931 3.29099C34.2907 2.91715 33.5649 2.73748 32.8335 2.76936C32.3091 2.75777 31.7875 2.83891 31.2908 3.00989C30.6505 3.23014 30.1096 3.68802 29.7729 4.30239C29.4141 5.02689 29.243 5.83833 29.2733 6.65556C29.2623 7.25254 29.3506 7.84953 29.53 8.41753C29.7618 9.15652 30.2476 9.77669 30.8934 10.1563C31.6606 10.5707 32.5161 10.7707 33.3772 10.7359C34.1196 10.7504 34.8592 10.6751 35.5851 10.5157C35.6182 10.5041 35.6485 10.4838 35.6706 10.4548C35.6899 10.4287 35.6982 10.394 35.6982 10.3621V8.84644C35.6982 8.80297 35.6844 8.76239 35.654 8.73342C35.6209 8.69864 35.574 8.68415 35.5271 8.68995C34.8647 8.83195 34.1886 8.9044 33.5124 8.9044C32.7728 8.9044 32.2346 8.76819 31.8979 8.52476C31.7379 8.41464 31.6081 8.26104 31.5226 8.07847C31.4536 7.92488 31.4122 7.75969 31.4012 7.58871H36.0929C36.1646 7.58871 36.2253 7.53365 36.2336 7.4583C36.2778 7.13662 36.2998 6.81495 36.2998 6.49037C36.3081 5.94845 36.2364 5.40942 36.0846 4.89068C35.8997 4.22705 35.4912 3.65904 34.931 3.29099Z" fill="#C169FF"/>
<path d="M8.1194 0.774971C7.33009 0.256231 6.31447 0.00120849 5.08359 0.00120849C4.33568 -0.0132814 3.58777 0.102638 2.87573 0.343171C1.96499 0.64746 1.195 1.29661 0.714794 2.16311C0.234585 3.0325 0 4.14243 0 5.49579C0.0662357 7.0636 0.505047 8.3648 1.20052 9.27766C1.85184 10.176 2.8647 10.7064 3.94103 10.7122C4.3136 10.7238 4.68618 10.6716 5.04496 10.5615C5.41201 10.46 5.72939 10.2195 5.93914 9.88914C6.08817 9.62253 6.17648 9.32693 6.19856 9.01974C6.20408 8.96468 6.182 8.91252 6.1406 8.88064C6.09921 8.84876 6.04677 8.84007 5.99985 8.86325C5.95294 8.88064 5.90326 8.89513 5.85358 8.90672C5.59968 8.95019 5.34026 8.97338 5.08359 8.97048C4.64754 8.97917 4.21425 8.90672 3.80304 8.75023C3.27591 8.55027 2.84538 8.14455 2.59423 7.61712C2.29341 6.94189 2.15266 6.2029 2.18026 5.45812C2.17198 4.93938 2.23546 4.42354 2.36517 3.92218C2.50316 3.33679 2.8371 2.82385 3.30627 2.47319C3.83891 2.12833 4.45987 1.96315 5.08359 1.99213C5.50861 1.98343 5.93362 2.05588 6.33379 2.20658C6.84712 2.40654 7.26661 2.80646 7.51224 3.3194C7.80478 3.98594 7.94277 4.71334 7.91517 5.44653C7.91517 6.47531 7.73302 7.26936 7.38804 7.83157C7.36321 7.88084 7.36321 7.93879 7.38804 7.98806C7.41288 8.03733 7.4598 8.0692 7.51224 8.0692H7.8103C8.30982 8.08369 8.79831 7.91561 9.19021 7.59393C9.53519 7.28965 9.78909 6.88683 9.92156 6.43474C10.0182 6.13335 10.0706 5.82037 10.0789 5.50159C10.0927 4.69305 9.9878 3.89031 9.76701 3.11654C9.50759 2.15441 8.91975 1.31979 8.1194 0.774971Z" fill="#C169FF"/>
<path d="M20.8062 10.5678H19.5671C19.1586 10.5678 18.8275 10.22 18.8275 9.79114V9.78825V3.0852C18.8275 3.00116 18.8937 2.93161 18.9737 2.92871H20.8035C20.8863 2.92871 20.9525 2.99826 20.9525 3.0852V10.4142C20.9525 10.5012 20.8863 10.5678 20.8062 10.5678Z" fill="#C169FF"/>
<path d="M18.9765 0.314575H20.8035C20.8863 0.314575 20.9525 0.384127 20.9525 0.471067V1.98961C20.9525 2.07655 20.8863 2.1461 20.8035 2.1461H18.9765C18.8937 2.1461 18.8275 2.07655 18.8275 1.98961V0.471067C18.8275 0.387025 18.8937 0.314575 18.9765 0.314575Z" fill="#C169FF"/>
<path fill-rule="evenodd" clip-rule="evenodd" d="M53.1846 3.37502L52.1193 8.09874L50.5352 3.41849C50.4082 3.03016 50.0577 2.77224 49.6686 2.77224H49.5913C49.2022 2.77224 48.8544 3.03306 48.7275 3.41849L47.1433 8.09874L46.0891 3.37502C46.009 3.02147 45.7082 2.77224 45.3632 2.77224H44.5519C44.4718 2.77224 44.4056 2.8389 44.4028 2.92294C44.4028 2.93743 44.4028 2.94902 44.4084 2.96351L46.216 10.4519C46.2326 10.5215 46.2933 10.5678 46.3595 10.5678H47.6732C47.7339 10.5678 47.7891 10.5273 47.8112 10.4693L49.641 5.45868L51.4707 10.4693C51.4928 10.5273 51.548 10.5678 51.6087 10.5678H52.9224C52.9886 10.5678 53.0466 10.5186 53.0659 10.4519L54.8736 2.96351C54.8929 2.88237 54.846 2.79832 54.7687 2.77804C54.7577 2.77514 54.7439 2.77224 54.7301 2.77224H53.9187C53.5682 2.76934 53.2646 3.01857 53.1846 3.37502Z" fill="#C169FF"/>
<path fill-rule="evenodd" clip-rule="evenodd" d="M9.17365 12.3675H7.83513V12.3154C7.82961 12.2661 7.82961 12.2197 7.83513 12.1705C7.83789 12.1444 7.84617 12.1212 7.86273 12.1009C7.88205 12.0835 7.90137 12.069 7.92621 12.0603C7.95381 12.0603 7.99244 12.0343 8.0366 12.0169L9.24816 11.6778C9.41651 11.6343 9.57382 11.5503 9.70905 11.4344C9.87188 11.2837 9.98504 11.0779 10.0264 10.8548C10.0651 10.6374 10.0816 10.4143 10.0761 10.194V10.0346C10.0789 9.86367 10.0485 9.69269 9.98504 9.53619C9.92156 9.37681 9.81945 9.2377 9.69249 9.13048H9.67318C9.50759 8.99717 9.3144 8.90443 9.10741 8.86386C8.90043 8.82329 8.68792 8.8059 8.47817 8.8088H8.02832C7.68058 8.79141 7.33561 8.89284 7.04583 9.0986C6.91335 9.20293 6.80848 9.34203 6.73948 9.50142C6.66497 9.68399 6.62909 9.88105 6.63185 10.081C6.63185 10.1738 6.65117 10.2665 6.68705 10.3534C6.745 10.4809 6.8416 10.5824 6.96303 10.6432C7.05686 10.6867 7.15622 10.7157 7.25833 10.7273C7.30801 10.7273 7.41564 10.7273 7.41564 10.7273H7.80478V10.4838C7.80478 10.3708 7.80478 10.2491 7.80478 10.194C7.8103 10.1303 7.82134 10.0694 7.84065 10.0086C7.84893 9.97959 7.86273 9.9535 7.88205 9.93032C7.90965 9.89554 7.94829 9.87236 7.98968 9.86077C8.06696 9.84048 8.14699 9.82889 8.22703 9.83179H8.33466C8.41194 9.82599 8.49197 9.82599 8.56925 9.83179C8.6134 9.83758 8.65756 9.84918 8.69896 9.86367C8.74588 9.87816 8.78451 9.91293 8.80935 9.9564C8.84799 10.0318 8.86455 10.1187 8.85903 10.2027V10.2607C8.86179 10.3273 8.86179 10.3911 8.85903 10.4578C8.85627 10.4867 8.85075 10.5157 8.84247 10.5418C8.82867 10.5766 8.80659 10.6027 8.77623 10.6229C8.71552 10.6635 8.64652 10.6954 8.57477 10.7128L7.33837 11.1156C7.02375 11.1996 6.77536 11.4489 6.68429 11.7763C6.62909 11.9647 6.60149 12.1589 6.60425 12.3559V13.3355C6.60425 13.4195 6.67049 13.4891 6.75052 13.4891H9.93536C10.0154 13.4891 10.0816 13.4195 10.0816 13.3355C10.0871 12.8051 9.68146 12.3733 9.17641 12.3675H9.17365Z" fill="#C169FF"/>
<path fill-rule="evenodd" clip-rule="evenodd" d="M68.7721 4.93988C68.5762 4.26175 68.1512 3.68215 67.5771 3.31121C66.912 2.92578 66.1558 2.73741 65.3969 2.77219C64.8449 2.76929 64.2957 2.86782 63.7741 3.06198V0.77837C63.7741 0.349467 63.4457 0.00460697 63.0372 0.00170898H62.35C62.27 0.00170898 62.2037 0.0712607 62.2037 0.155302V10.2461C62.2037 10.3156 62.2507 10.3765 62.3141 10.3939C63.269 10.6141 64.246 10.7185 65.2257 10.7098C65.7805 10.7214 66.3324 10.6344 66.8596 10.4547C67.5385 10.22 68.1098 9.73315 68.4658 9.0811C68.8466 8.31024 69.0315 7.44954 68.9957 6.58304C69.0039 6.02662 68.9294 5.47311 68.7721 4.93988ZM63.7741 5.51948V4.58922C64.2846 4.35738 64.8338 4.24436 65.3886 4.25306C65.6977 4.24726 66.0068 4.29653 66.3021 4.39796C66.6636 4.52257 66.9672 4.78339 67.1521 5.13404C67.3646 5.57454 67.464 6.0614 67.4446 6.55406C67.4529 6.96847 67.4032 7.38288 67.2984 7.7828C67.188 8.24359 66.9258 8.64641 66.5587 8.92461C66.142 9.19992 65.6535 9.33323 65.1623 9.30715C64.6959 9.31584 64.2322 9.25788 63.7824 9.13617L63.7741 5.51948Z" fill="#C169FF"/>
<path fill-rule="evenodd" clip-rule="evenodd" d="M60.3242 3.24737C59.7198 2.9054 59.0409 2.74312 58.3564 2.7721C57.8459 2.76051 57.3381 2.83585 56.8523 3.00104C56.2203 3.22418 55.6904 3.68496 55.3648 4.29644C55.0115 5.02093 54.8432 5.83237 54.8735 6.64671C54.8625 7.24369 54.9453 7.83778 55.1164 8.40578C55.3262 9.13318 55.7898 9.75335 56.4108 10.1446C57.1338 10.559 57.948 10.7589 58.7704 10.7242C59.4962 10.7445 60.2221 10.6459 60.9203 10.4344C60.981 10.4141 61.0224 10.3532 61.0224 10.2866V9.19693C61.0224 9.15057 61.0003 9.1042 60.9672 9.07522C60.9314 9.04914 60.8844 9.04044 60.8403 9.05203C60.2138 9.25489 59.5625 9.35343 58.9084 9.34183C58.5358 9.35053 58.1632 9.30126 57.8045 9.20273C57.396 9.0984 57.0317 8.84628 56.7806 8.49272C56.5626 8.13627 56.4466 7.72476 56.4466 7.30165H61.4143C61.4861 7.30165 61.5496 7.24369 61.5578 7.16834C61.5992 6.83797 61.6213 6.50181 61.6213 6.16854C61.6296 5.67588 61.5634 5.18902 61.4198 4.71954C61.246 4.10227 60.8541 3.57774 60.3242 3.24737ZM56.6012 5.18902C56.7199 4.86155 56.9406 4.58913 57.2304 4.41526C57.5782 4.22689 57.9645 4.13705 58.3564 4.15444C58.6131 4.14864 58.8698 4.18921 59.1154 4.27036C59.4134 4.37179 59.6646 4.58334 59.8247 4.86444C59.982 5.16873 60.0703 5.51069 60.0786 5.85845H56.4494C56.4715 5.62951 56.5212 5.40637 56.6012 5.18902Z" fill="#C169FF"/>
<path d="M43.6301 4.4676C43.4865 3.94017 43.1637 3.48808 42.7221 3.19249C42.2198 2.89109 41.6457 2.7462 41.0662 2.77228C40.299 2.78387 39.5566 3.07077 38.9632 3.58082C38.8997 3.20698 38.5934 2.93456 38.2318 2.93167H37.0341C36.9541 2.93167 36.8878 3.00122 36.8878 3.08526V10.4172C36.8878 10.5012 36.9541 10.5708 37.0341 10.5708H38.8694C38.9494 10.5708 39.0156 10.5012 39.0156 10.4172V5.31961C39.4572 4.9052 40.0257 4.66756 40.6191 4.64728C40.7819 4.64438 40.942 4.66756 41.0965 4.71683C41.2759 4.77479 41.4305 4.8994 41.5271 5.07038C41.6375 5.28483 41.6871 5.52536 41.6761 5.7659V9.7999C41.6733 10.2317 42.0045 10.5795 42.4157 10.5824H42.4185H42.9153C43.1499 10.5824 43.3927 10.5824 43.6521 10.5824C43.6908 10.5824 43.7294 10.5679 43.757 10.5389C43.7846 10.5099 43.7984 10.4722 43.7984 10.4317V5.7659C43.8067 5.3283 43.7515 4.89071 43.6301 4.4676Z" fill="#C169FF"/>
<path d="M18.2148 3.17223C18.2617 3.10268 18.2479 3.00705 18.1817 2.95778C18.1568 2.9375 18.1265 2.9288 18.0961 2.9288H16.0456C15.9986 2.9288 15.9545 2.95199 15.9269 2.98966L14.4559 5.05882L13.1643 3.24468C13.0236 3.04472 12.8028 2.9288 12.5654 2.9288H10.8323C10.7522 2.9259 10.6888 2.99256 10.686 3.0766C10.686 3.11137 10.697 3.14615 10.7163 3.17223L13.2471 6.74545L10.7108 10.3216C10.6612 10.3882 10.675 10.4868 10.7384 10.536C10.7633 10.5563 10.7936 10.5679 10.8267 10.5679H12.858C12.9049 10.5679 12.9463 10.5447 12.9739 10.5041L14.4504 8.43498L15.7447 10.2462C15.8855 10.4462 16.109 10.5621 16.3436 10.5621H18.0851C18.1651 10.5621 18.2313 10.4954 18.2341 10.4114C18.2341 10.3766 18.2231 10.3448 18.2037 10.3158L15.6647 6.73966L18.2148 3.17223Z" fill="#C169FF"/>
</svg>
