<svg width="68" height="68" viewBox="0 0 68 68" fill="none" xmlns="http://www.w3.org/2000/svg">
<circle cx="34" cy="34" r="34" fill="#5C2483"/>
<path d="M43.7591 38.7494C42.1765 37.1131 40.2965 35.9058 38.2477 35.1731L37.6051 34.9453L38.1632 34.5467C40.3259 33.0053 41.7432 30.4351 41.7432 27.5232C41.7432 25.1731 40.8179 23.0433 39.3272 21.4981C37.8327 19.9567 35.7729 19 33.5 19C31.2271 19 29.1673 19.9567 27.6728 21.4981C26.1784 23.0433 25.2568 25.1731 25.2568 27.5232C25.2568 30.4351 26.6741 33.0091 28.8368 34.5467L29.3949 34.9453L28.756 35.1731C26.7035 35.9058 24.8235 37.1131 23.2446 38.7494C20.5789 41.4981 19.0881 45.1238 19 49H20.6376C20.8212 41.8246 26.5162 36.0463 33.5 36.0463C40.4838 36.0463 46.1788 41.8246 46.3624 49H48C47.9119 45.1238 46.4174 41.4981 43.7591 38.7494ZM26.8944 27.5232C26.8944 23.757 29.8576 20.6932 33.5 20.6932C37.1424 20.6932 40.1056 23.757 40.1056 27.5232C40.1056 31.2893 37.1424 34.3531 33.5 34.3531C29.8539 34.3531 26.8944 31.2893 26.8944 27.5232Z" fill="#C169FF"/>
</svg>
